<svg xmlns="http://www.w3.org/2000/svg" viewBox="0 0 32 32" fill="none">
  <path d="M16 2C14.5 7 11 10 9 13c-2.5 3.8-3 7.5-1.5 11C9 27 12.5 30 16 30c3.5 0 7-3 8.5-6 1.5-3.5 1-7.2-1.5-11-2-3-5.5-6-7-11z" fill="url(#flame)"/>
  <path d="M16 12c-1 3-2.5 5-3.5 7-1.2 2.3-0.8 4.5 0.5 6 1 1.2 2 2 3 2s2-0.8 3-2c1.3-1.5 1.7-3.7 0.5-6-1-2-2.5-4-3.5-7z" fill="url(#inner)"/>
  <defs>
    <linearGradient id="flame" x1="16" y1="2" x2="16" y2="30" gradientUnits="userSpaceOnUse">
      <stop stop-color="#ff4a33"/>
      <stop offset="0.5" stop-color="#e63620"/>
      <stop offset="1" stop-color="#ff6b35"/>
    </linearGradient>
    <linearGradient id="inner" x1="16" y1="12" x2="16" y2="27" gradientUnits="userSpaceOnUse">
      <stop stop-color="#ff6b35"/>
      <stop offset="1" stop-color="#ffb347"/>
    </linearGradient>
  </defs>
</svg>
