<svg id="Capa_1" xmlns="http://www.w3.org/2000/svg" version="1.1" viewBox="0 0 900 900">
    <path d="M674.5,32.6H225.5c-111.6,0-202.9,91.3-202.9,202.9v429.1c0,111.6,91.3,202.9,202.9,202.9h448.9c111.6,0,202.9-91.3,202.9-202.9V235.5c0-111.6-91.3-202.9-202.9-202.9ZM162.8,516l1.2-89.3,114.3,1.6,119.9-79.8-117.6-83.6-114.3-1.6,1.2-89.3,142.3,2,199.2,141.6-.9,64.3-203.1,136.1-142.3-2ZM594.9,725.9l-203.1-136.1-.9-64.3,199.2-141.6,142.3-2,1.2,89.3-114.3,1.6-117.6,83.6,119.9,79.8,114.3-1.6,1.2,89.3-142.3,2Z"/>
    <style>
        path { fill: #000; }
        @media (prefers-color-scheme: dark) {
            path { fill: #FFF; }
        }
    </style>
</svg>
